<mxfile host="65bd71144e">
    <diagram id="TGnortKKnC883HUWAycK" name="Page-1">
        <mxGraphModel dx="1653" dy="931" grid="1" gridSize="10" guides="1" tooltips="1" connect="1" arrows="1" fold="1" page="1" pageScale="1" pageWidth="827" pageHeight="1169" math="0" shadow="0">
            <root>
                <mxCell id="0"/>
                <mxCell id="1" parent="0"/>
                <mxCell id="26" style="edgeStyle=none;html=1;" edge="1" parent="1" source="5" target="22">
                    <mxGeometry relative="1" as="geometry"/>
                </mxCell>
                <mxCell id="5" value="PEDIDO EFETUADO" style="rounded=1;whiteSpace=wrap;html=1;fillColor=#60a917;strokeColor=#2D7600;fontColor=#ffffff;" vertex="1" parent="1">
                    <mxGeometry x="50" y="270" width="230" height="60" as="geometry"/>
                </mxCell>
                <mxCell id="51" style="edgeStyle=none;html=1;" edge="1" parent="1" source="15" target="50">
                    <mxGeometry relative="1" as="geometry"/>
                </mxCell>
                <mxCell id="15" value="PAGAMENTO LOCAL" style="whiteSpace=wrap;html=1;fillColor=#60a917;strokeColor=#2D7600;fontColor=#ffffff;rounded=1;" vertex="1" parent="1">
                    <mxGeometry x="671" y="50" width="120" height="60" as="geometry"/>
                </mxCell>
                <mxCell id="40" value="" style="edgeStyle=none;html=1;" edge="1" parent="1" source="17" target="39">
                    <mxGeometry relative="1" as="geometry"/>
                </mxCell>
                <mxCell id="17" value="STRIPE" style="whiteSpace=wrap;html=1;fillColor=#60a917;strokeColor=#2D7600;fontColor=#ffffff;rounded=1;" vertex="1" parent="1">
                    <mxGeometry x="680" y="270" width="120" height="60" as="geometry"/>
                </mxCell>
                <mxCell id="48" style="edgeStyle=none;html=1;" edge="1" parent="1" source="19" target="46">
                    <mxGeometry relative="1" as="geometry"/>
                </mxCell>
                <mxCell id="19" value="HIPAY" style="whiteSpace=wrap;html=1;fillColor=#60a917;strokeColor=#2D7600;fontColor=#ffffff;rounded=1;" vertex="1" parent="1">
                    <mxGeometry x="700" y="840" width="120" height="60" as="geometry"/>
                </mxCell>
                <mxCell id="27" style="edgeStyle=none;html=1;" edge="1" parent="1" source="22" target="17">
                    <mxGeometry relative="1" as="geometry"/>
                </mxCell>
                <mxCell id="28" style="edgeStyle=none;html=1;entryX=0;entryY=1;entryDx=0;entryDy=0;" edge="1" parent="1" source="22" target="15">
                    <mxGeometry relative="1" as="geometry"/>
                </mxCell>
                <mxCell id="29" style="edgeStyle=none;html=1;" edge="1" parent="1" source="22" target="19">
                    <mxGeometry relative="1" as="geometry"/>
                </mxCell>
                <mxCell id="22" value="RODAR UM CRON PARA EXPIRAR O PEDIDO EM 6 MINUTOS SE O PEDIDO NAO FOR ACEITO OU NAO FOR PAGO" style="whiteSpace=wrap;html=1;fillColor=#60a917;strokeColor=#2D7600;fontColor=#ffffff;rounded=1;" vertex="1" parent="1">
                    <mxGeometry x="370" y="270" width="237" height="60" as="geometry"/>
                </mxCell>
                <mxCell id="42" value="" style="edgeStyle=none;html=1;shape=link;" edge="1" parent="1" source="39" target="41">
                    <mxGeometry relative="1" as="geometry"/>
                </mxCell>
                <mxCell id="52" style="edgeStyle=none;html=1;" edge="1" parent="1" source="39" target="50">
                    <mxGeometry relative="1" as="geometry"/>
                </mxCell>
                <mxCell id="69" style="edgeStyle=none;html=1;entryX=0.5;entryY=0;entryDx=0;entryDy=0;" edge="1" parent="1" source="39" target="60">
                    <mxGeometry relative="1" as="geometry"/>
                </mxCell>
                <mxCell id="39" value="PAGAMENTO SUCESSO" style="shape=parallelogram;perimeter=parallelogramPerimeter;whiteSpace=wrap;html=1;fixedSize=1;fillColor=#60a917;strokeColor=#2D7600;fontColor=#ffffff;rounded=1;" vertex="1" parent="1">
                    <mxGeometry x="870" y="270" width="120" height="60" as="geometry"/>
                </mxCell>
                <mxCell id="41" value="PAGAMENTO FALHA&amp;nbsp;" style="shape=parallelogram;perimeter=parallelogramPerimeter;whiteSpace=wrap;html=1;fixedSize=1;fillColor=#e51400;strokeColor=#B20000;fontColor=#ffffff;rounded=1;" vertex="1" parent="1">
                    <mxGeometry x="1030" y="270" width="120" height="60" as="geometry"/>
                </mxCell>
                <mxCell id="49" value="" style="edgeStyle=none;html=1;shape=link;" edge="1" parent="1" source="46" target="47">
                    <mxGeometry relative="1" as="geometry"/>
                </mxCell>
                <mxCell id="53" style="edgeStyle=none;html=1;" edge="1" parent="1" source="46" target="50">
                    <mxGeometry relative="1" as="geometry">
                        <Array as="points">
                            <mxPoint x="1440" y="700"/>
                            <mxPoint x="1440" y="50"/>
                        </Array>
                    </mxGeometry>
                </mxCell>
                <mxCell id="46" value="PAGAMENTO SUCESSO" style="shape=parallelogram;perimeter=parallelogramPerimeter;whiteSpace=wrap;html=1;fixedSize=1;fillColor=#60a917;strokeColor=#2D7600;fontColor=#ffffff;rounded=1;" vertex="1" parent="1">
                    <mxGeometry x="880" y="840" width="120" height="60" as="geometry"/>
                </mxCell>
                <mxCell id="47" value="PAGAMENTO FALHA&amp;nbsp;" style="shape=parallelogram;perimeter=parallelogramPerimeter;whiteSpace=wrap;html=1;fixedSize=1;fillColor=#e51400;strokeColor=#B20000;fontColor=#ffffff;rounded=1;" vertex="1" parent="1">
                    <mxGeometry x="1030" y="840" width="120" height="60" as="geometry"/>
                </mxCell>
                <mxCell id="50" value="MARCAR A ORDEM COMO AVALIABLE E ENVIAR PARA O WEBSOCKET" style="rounded=0;whiteSpace=wrap;html=1;fillColor=#0050ef;fontColor=#ffffff;strokeColor=#001DBC;" vertex="1" parent="1">
                    <mxGeometry x="1051" y="10" width="190" height="80" as="geometry"/>
                </mxCell>
                <mxCell id="60" value="" style="swimlane;startSize=20;horizontal=1;childLayout=flowLayout;flowOrientation=north;resizable=0;interRankCellSpacing=50;containerType=tree;fontSize=12;" vertex="1" parent="1">
                    <mxGeometry x="727" y="360" width="285" height="303" as="geometry"/>
                </mxCell>
                <mxCell id="61" value="PEDIDO" style="whiteSpace=wrap;html=1;" vertex="1" parent="60">
                    <mxGeometry x="92.5" y="40" width="100" height="40" as="geometry"/>
                </mxCell>
                <mxCell id="62" value="RECUSADO" style="whiteSpace=wrap;html=1;" vertex="1" parent="60">
                    <mxGeometry x="27.5" y="130" width="100" height="40" as="geometry"/>
                </mxCell>
                <mxCell id="63" value="" style="html=1;rounded=1;curved=0;sourcePerimeterSpacing=0;targetPerimeterSpacing=0;startSize=6;endSize=6;noEdgeStyle=1;orthogonal=1;" edge="1" parent="60" source="61" target="62">
                    <mxGeometry relative="1" as="geometry">
                        <Array as="points">
                            <mxPoint x="120" y="92"/>
                            <mxPoint x="77.5" y="118"/>
                        </Array>
                    </mxGeometry>
                </mxCell>
                <mxCell id="64" value="ACEITO" style="whiteSpace=wrap;html=1;" vertex="1" parent="60">
                    <mxGeometry x="157.5" y="130" width="100" height="40" as="geometry"/>
                </mxCell>
                <mxCell id="65" value="" style="html=1;rounded=1;curved=0;sourcePerimeterSpacing=0;targetPerimeterSpacing=0;startSize=6;endSize=6;noEdgeStyle=1;orthogonal=1;" edge="1" parent="60" source="61" target="64">
                    <mxGeometry relative="1" as="geometry">
                        <Array as="points">
                            <mxPoint x="165" y="92"/>
                            <mxPoint x="207.5" y="118"/>
                        </Array>
                    </mxGeometry>
                </mxCell>
                <mxCell id="70" value="" style="html=1;rounded=1;curved=0;sourcePerimeterSpacing=0;targetPerimeterSpacing=0;startSize=6;endSize=6;noEdgeStyle=1;orthogonal=1;" edge="1" target="71" source="64" parent="60">
                    <mxGeometry relative="1" as="geometry">
                        <mxPoint x="1277.5" y="1050" as="sourcePoint"/>
                        <Array as="points">
                            <mxPoint x="207.5" y="182"/>
                            <mxPoint x="212.5" y="208"/>
                        </Array>
                    </mxGeometry>
                </mxCell>
                <mxCell id="71" value="QUANDO O PEDIDO FOR FINALIZADO" style="whiteSpace=wrap;html=1;" vertex="1" parent="60">
                    <mxGeometry x="160" y="221.125" width="105" height="61.5" as="geometry"/>
                </mxCell>
                <mxCell id="81" value="" style="html=1;rounded=1;curved=0;sourcePerimeterSpacing=0;targetPerimeterSpacing=0;startSize=6;endSize=6;noEdgeStyle=1;orthogonal=1;" edge="1" target="82" source="62" parent="60">
                    <mxGeometry relative="1" as="geometry">
                        <mxPoint x="899.5" y="560" as="sourcePoint"/>
                        <Array as="points">
                            <mxPoint x="77.5" y="182"/>
                            <mxPoint x="75" y="208"/>
                        </Array>
                    </mxGeometry>
                </mxCell>
                <mxCell id="82" value="EXTORNA O VALOR TOTAL PARA O CLIENTE&lt;br&gt;" style="whiteSpace=wrap;html=1;" vertex="1" parent="60">
                    <mxGeometry x="20" y="221.5" width="110" height="60.75" as="geometry"/>
                </mxCell>
            </root>
        </mxGraphModel>
    </diagram>
</mxfile>